<svg xmlns="http://www.w3.org/2000/svg" viewBox="0 0 512 512" width="512" height="512">
  <rect width="512" height="512" rx="108" fill="#161B2E"/>
  <defs>
    <linearGradient id="amb" x1="0" y1="0" x2="1" y2="1">
      <stop offset="0" stop-color="#F2A638"/><stop offset="1" stop-color="#D2811A"/>
    </linearGradient>
  </defs>
  <g stroke="#ffffff" stroke-opacity="0.05" stroke-width="2">
    <path d="M152 0V512M280 0V512M408 0V512M0 152H512M0 280H512M0 408H512"/>
  </g>
  <g stroke="#ffffff" stroke-opacity="0.22" stroke-width="5" stroke-linecap="round">
    <path d="M96 132V392M96 392H420"/>
  </g>
  <g stroke="#E0912A" stroke-opacity="0.30" stroke-width="4" stroke-dasharray="3 10" stroke-linecap="round">
    <path d="M200 200V392M306 226V392"/>
  </g>
  <path d="M96 168C128 256 156 312 200 312L200 200C236 268 268 304 306 308L306 226C340 276 366 300 416 304"
        fill="none" stroke="url(#amb)" stroke-width="17" stroke-linecap="round" stroke-linejoin="round"/>
  <g fill="#F2A638">
    <circle cx="96" cy="168" r="13"/><circle cx="200" cy="200" r="13"/>
    <circle cx="306" cy="226" r="13"/><circle cx="416" cy="304" r="12"/>
  </g>
</svg>
